<?xml version="1.0" standalone="no"?><!DOCTYPE svg PUBLIC "-//W3C//DTD SVG 1.1//EN" "http://www.w3.org/Graphics/SVG/1.1/DTD/svg11.dtd"><svg t="1719112097568" class="icon" viewBox="0 0 1025 1024" version="1.1" xmlns="http://www.w3.org/2000/svg" p-id="28662" xmlns:xlink="http://www.w3.org/1999/xlink" width="64.0625" height="64"><path d="M511.308191 960.256996c-60.440268 0-119.182214-11.888251-174.427617-35.165247-53.347278-22.577687-101.299887-54.845797-142.45921-96.00512-41.159323-41.159323-73.427433-89.111932-96.00512-142.45921-23.376897-55.245402-35.165247-113.887447-35.165247-174.427616 0-60.440268 11.888251-119.182214 35.165247-174.427617 22.577687-53.347278 54.845797-101.299887 96.00512-142.45921 41.159323-41.159323 89.111932-73.427433 142.45921-96.00512 55.245402-23.376897 113.887447-35.165247 174.427617-35.165247 60.440268 0 119.182214 11.888251 174.427616 35.165247 53.347278 22.577687 101.299887 54.845797 142.45921 96.00512 41.159323 41.159323 73.427433 89.111932 96.00512 142.45921 23.376897 55.245402 35.165247 113.887447 35.165247 174.427617 0 60.440268-11.888251 119.182214-35.165247 174.427616-22.577687 53.347278-54.845797 101.299887-96.00512 142.45921s-89.111932 73.427433-142.45921 96.00512c-55.245402 23.376897-113.887447 35.165247-174.427616 35.165247z m0-895.115374c-246.556333 0-447.058181 200.501848-447.058181 447.058181s200.501848 447.058181 447.058181 447.05818S958.366371 758.756136 958.366371 512.199803 757.864524 65.141622 511.308191 65.141622z" fill="#CCCCCC" p-id="28663"></path><path d="M909.115046 928.588294h-792.217067c-10.589535 0-19.181044-8.591509-19.181044-19.181044V117.090282c0-10.589535 8.591509-19.181044 19.181044-19.181044h792.217067c10.589535 0 19.181044 8.591509 19.181043 19.181044v792.316968c0 10.589535-8.591509 19.181044-19.181043 19.181044z m-792.217067-829.280438c-9.790324 0-17.782426 7.992102-17.782426 17.782426v792.316968c0 9.790324 7.992102 17.782426 17.782426 17.782426h792.217067c9.790324 0 17.782426-7.992102 17.782426-17.782426V117.090282c0-9.790324-7.992102-17.782426-17.782426-17.782426h-792.217067z" fill="#CCCCCC" p-id="28664"></path><path d="M113.201632 957.959267c-3.096939 0-5.994076-0.999013-8.491608-2.997038-4.295755-3.396643-6.893188-9.190917-6.893188-15.384796V84.322665c0-11.388745 8.591509-20.679563 19.181044-20.679562h792.217067c10.589535 0 19.181044 9.290818 19.181044 20.679562V939.577433c0 6.093977-2.497532 11.688449-6.693385 15.085092-3.596446 2.897137-8.291805 3.89615-12.987165 2.897137h-792.217067c-1.098914 0.299704-2.197828 0.399605-3.296742 0.399605z m3.696347-892.917547c-9.790324 0-17.782426 8.69141-17.782426 19.280945V939.577433c0 5.794274 2.39763 11.188942 6.393681 14.285882 3.096939 2.39763 6.893188 3.296742 10.689436 2.297729H908.815342c4.395656 0.999013 8.591509 0 11.888251-2.597433 3.89615-3.096939 6.193879-8.391707 6.193879-13.986178V84.322665c0-10.589535-7.992102-19.280945-17.782426-19.280945h-792.217067z" fill="#CCCCCC" p-id="28665"></path><path d="M939.984538 928.488392H84.629869c-11.388745 0-20.679563-8.591509-20.679563-19.181043v-792.217067c0-10.589535 9.290818-19.181044 20.679563-19.181044h855.254768c11.388745 0 20.679563 8.591509 20.679562 19.181044v792.217067c0.099901 10.589535-9.190917 19.181044-20.579661 19.181043zM84.629869 99.307856c-10.589535 0-19.280945 7.992102-19.280945 17.782426v792.217067c0 9.790324 8.69141 17.782426 19.280945 17.782426h855.254768c10.589535 0 19.280945-7.992102 19.280945-17.782426v-792.217067c0-9.790324-8.69141-17.782426-19.280945-17.782426H84.629869z" fill="#CCCCCC" p-id="28666"></path><path d="M0.000506 0.989023l0.989023-0.989023 1023.010977 1023.010977-0.989022 0.989023z" fill="#CCCCCC" p-id="28667"></path><path d="M0.000506 1023.010977L1023.011484 0l0.989022 0.989023L0.989529 1024z" fill="#CCCCCC" p-id="28668"></path><path d="M492.426851 595.817165m-303.00055 0a303.00055 303.00055 0 1 0 606.0011 0 303.00055 303.00055 0 1 0-606.0011 0Z" fill="#FC6A06" p-id="28669"></path><path d="M492.426851 922.494316c-180.121989 0-326.57725-146.555162-326.57725-326.677151S312.404763 269.239915 492.426851 269.239915s326.57725 146.555162 326.57725 326.57725c0 180.121989-146.455261 326.677151-326.57725 326.677151z m0-606.0011c-154.047757 0-279.423851 125.376093-279.423851 279.42385s125.376093 279.423851 279.423851 279.423851S771.7508 749.864923 771.7508 595.817165c0-154.047757-125.276192-279.323949-279.323949-279.323949z" fill="#231815" p-id="28670"></path><path d="M467.95104 861.954147a22.377884 10.98914 0 1 0 44.755768 0 22.377884 10.98914 0 1 0-44.755768 0Z" fill="#933506" p-id="28671"></path><path d="M492.426851 276.332905s-11.588547-132.169379 32.068307-148.75299" fill="#0ECC4E" p-id="28672"></path><path d="M492.426851 299.909605c-12.088054 0-22.377884-9.290818-23.476799-21.578674-0.099901-1.398618-2.997038-35.365049-0.399605-71.928914 4.195853-57.343329 19.780451-90.410649 47.652906-100.900282 12.187955-4.595458 25.874429 1.498519 30.469887 13.686474 4.595458 12.187955-1.498519 25.874429-13.686474 30.469887-3.396643 1.298717-13.886276 14.98519-17.183018 59.641058-2.39763 32.867518 0.299704 64.53622 0.299704 64.835923 1.098914 12.987165-8.491608 24.475811-21.478773 25.574725-0.79921 0.199803-1.498519 0.199803-2.197828 0.199803z" fill="#231815" p-id="28673"></path><path d="M492.426851 193.814457s143.158519-85.415585 205.996417 62.338392c-1.198815-0.899111-166.83512-7.192891-205.996417-62.338392z" fill="#0ECC4E" p-id="28674"></path><path d="M698.423268 273.935275c-1.098914 0-2.097927-0.099901-3.096939-0.299704-0.899111-0.099901-2.497532-0.199803-4.595458-0.399605-114.88646-8.991114-186.51567-32.26811-212.689803-69.131678-2.897137-3.996051-3.89615-9.091016-2.897137-13.886277 0.999013-4.795261 3.996051-8.991114 8.291806-11.588547 2.897137-1.798223 72.927927-42.757743 141.460197-20.379859 39.461001 12.887264 69.731086 43.457052 89.911143 91.010056 3.196841 7.492595 0.899111 16.184006-5.594472 21.079168-3.296742 2.39763-6.993089 3.596446-10.789337 3.596446z m-2.597433-0.299704z m-8.491608-3.596446z m0 0z m0-0.099901zM523.995652 198.509816c20.47976 12.787362 61.439281 28.471862 143.558124 37.063371-14.385783-22.078181-32.467913-36.763667-53.846784-43.656854-32.867518-10.789337-67.733061-1.898124-89.71134 6.593483z" fill="#231815" p-id="28675"></path><path d="M646.974115 363.047207s144.057631 88.212821 122.878561 265.537574c0.399605 19.580649-25.17512 173.92811-188.213992 233.369366 0 0.399605 150.051707-114.786559 150.051707-249.45347-0.099901-165.336601-35.165247-174.627419-84.716276-249.45347z" fill="#C65406" p-id="28676"></path><path d="M276.839911 719.494937c-6.993089 0-13.686474-4.195853-16.483709-11.089041-33.966432-84.21677-24.575712-169.032948-4.395656-220.282299 3.596446-9.091016 13.886276-13.586573 22.977292-9.990127 9.091016 3.596446 13.586573 13.886276 9.990127 22.977292-16.883315 42.857645-25.874429 119.382017 4.295754 194.108166 3.696347 9.091016-0.699309 19.380846-9.790324 23.077193-2.097927 0.79921-4.395656 1.198815-6.593484 1.198816z" fill="#FFFFFF" p-id="28677"></path><path d="M301.315722 465.346107c-3.696347 0-7.392694-1.098914-10.589534-3.496544-7.8922-5.894175-9.490621-16.983216-3.596446-24.775515 6.793286-9.091016 11.78835-15.584598 15.085092-19.580649 1.59842-1.898124 2.797236-3.296742 3.796248-4.295754 7.392694-7.492595 16.883315-6.993089 22.877391-3.09694 6.993089 4.395656 11.288843 14.086079 5.994076 24.076206-1.398618 2.697334-3.396643 4.795261-5.694373 6.393681-2.097927 2.597433-6.093977 7.692398-13.586572 17.782426-3.596446 4.595458-8.891213 6.993089-14.285882 6.993089z m2.197828-47.752807z" fill="#FFFFFF" p-id="28678"></path></svg>